<?xml version="1.0" standalone="no"?>
<!DOCTYPE svg PUBLIC "-//W3C//DTD SVG 20010904//EN"
 "http://www.w3.org/TR/2001/REC-SVG-20010904/DTD/svg10.dtd">
<svg version="1.0" xmlns="http://www.w3.org/2000/svg"
 width="800.000000pt" height="800.000000pt" viewBox="0 0 800.000000 800.000000"
 preserveAspectRatio="xMidYMid meet">
<metadata>
Created by potrace 1.14, written by Peter Selinger 2001-2017
</metadata>
<g transform="translate(0.000000,800.000000) scale(0.100000,-0.100000)"
fill="#000000" stroke="none">
<path d="M3269 7996 c-2 -2 -22 -6 -44 -9 -123 -16 -310 -88 -436 -169 -195
-125 -394 -333 -544 -568 -26 -41 -55 -86 -64 -100 -78 -114 -267 -559 -306
-715 -1 -5 -4 -14 -5 -20 -1 -5 -7 -21 -12 -35 -21 -54 -92 -356 -104 -440 -3
-19 -7 -48 -11 -65 -3 -16 -7 -43 -9 -60 -1 -16 -5 -43 -8 -60 -12 -77 -23
-182 -32 -301 l-6 -91 119 3 c136 3 214 -12 277 -53 23 -15 46 -23 60 -19 26
6 96 15 159 20 27 3 51 6 53 9 8 8 -43 40 -161 102 -60 32 -112 59 -115 62 -4
4 93 -3 142 -11 76 -12 201 -66 280 -122 54 -38 95 -49 133 -34 35 13 28 47
-24 113 -39 50 -90 92 -176 143 l-40 24 40 -5 c123 -16 215 -52 276 -107 39
-35 79 -101 79 -130 0 -28 49 -77 87 -87 59 -17 192 -8 243 16 47 21 80 64 74
97 -8 51 -18 67 -71 112 -32 27 -66 56 -76 65 -10 9 -59 34 -108 56 -50 22
-91 44 -92 49 -1 4 25 7 58 6 149 -4 279 -64 399 -184 126 -126 221 -136 378
-41 41 25 53 28 43 12 -4 -5 -9 -25 -11 -42 l-5 -32 21 34 c59 93 39 219 -51
316 -60 65 -102 89 -130 75 -30 -17 -157 -37 -199 -33 -19 2 -42 4 -50 4 -39
2 -146 34 -197 60 l-58 29 181 -6 c227 -8 252 1 198 65 -32 39 -121 67 -204
66 -33 0 -60 2 -60 6 0 12 86 32 149 34 35 1 87 -3 115 -9 59 -14 196 -75 196
-87 0 -5 6 -9 14 -9 28 0 215 -198 216 -227 0 -7 4 -13 8 -13 5 0 15 -18 22
-40 16 -49 35 -40 38 18 3 51 -8 78 -74 180 -30 46 -53 86 -51 88 6 6 100 -56
128 -85 61 -62 76 -94 88 -190 7 -48 4 -61 -21 -110 -15 -30 -34 -58 -40 -62
-7 -5 -10 -11 -6 -14 12 -12 134 119 156 168 52 111 47 228 -14 355 -36 75
-43 86 -104 155 l-35 40 30 -7 c77 -18 173 -112 214 -209 49 -114 61 -255 29
-344 -9 -24 -13 -43 -10 -43 9 0 76 54 98 80 12 13 30 40 39 60 10 19 21 42
25 50 11 22 10 129 -1 175 -11 45 -37 101 -58 128 -8 9 -11 17 -7 17 4 0 -6
17 -23 37 -17 20 -29 39 -26 41 2 3 23 -6 47 -18 176 -90 234 -340 128 -549
-45 -90 -120 -155 -252 -219 -73 -36 -69 -36 52 -6 36 9 74 18 85 20 11 2 70
18 130 34 61 17 119 33 130 35 11 3 53 16 94 30 85 29 123 31 141 10 7 -9 27
-22 45 -31 18 -8 37 -26 44 -40 10 -23 8 -28 -21 -52 -88 -75 -118 -107 -128
-138 -13 -38 -5 -93 15 -100 7 -3 43 9 80 27 83 39 101 33 99 -33 -2 -54 -30
-88 -115 -136 -49 -28 -99 -77 -181 -177 -14 -16 -49 -66 -78 -110 -29 -44
-80 -109 -115 -145 -71 -75 -115 -163 -122 -249 -3 -31 -9 -59 -14 -62 -12 -7
-18 -41 -21 -118 -2 -55 -5 -64 -25 -72 -13 -5 -23 -16 -24 -26 0 -10 -2 -25
-3 -33 -2 -8 -6 -42 -10 -74 -7 -65 -12 -78 -22 -52 -12 31 -30 16 -41 -36 -7
-29 -20 -86 -28 -125 -17 -73 -27 -88 -40 -55 -8 22 -15 10 -46 -78 -12 -36
-26 -76 -32 -90 -6 -14 -11 -27 -12 -30 -11 -46 -39 -101 -85 -170 -46 -69
-61 -102 -78 -175 -28 -113 -24 -100 -72 -230 -23 -60 -43 -117 -45 -125 -2
-8 -17 -55 -33 -105 -44 -130 -53 -171 -57 -249 -2 -39 -6 -106 -9 -150 -3
-43 -4 -82 -1 -86 5 -8 28 -2 99 24 65 24 210 98 269 137 223 150 464 427 608
699 19 36 36 67 39 70 11 10 110 228 148 325 59 151 140 408 155 495 3 14 10
43 16 65 14 53 49 234 56 288 3 23 7 49 10 57 4 15 12 79 20 160 3 25 7 63 10
85 26 221 26 777 0 970 -2 17 -9 71 -15 120 -13 113 -23 176 -34 225 -3 14 -8
39 -10 55 -6 34 -21 116 -31 159 -5 26 -59 230 -69 266 -3 8 -16 51 -29 95
-22 71 -31 97 -63 180 -4 11 -8 22 -9 25 -1 3 -5 14 -10 25 -246 613 -614
1047 -1025 1209 -123 49 -217 68 -361 72 -74 3 -137 3 -140 0z"/>
<path d="M1688 5343 c-2 -5 -5 -70 -7 -145 -1 -109 1 -137 11 -133 7 2 31 6
53 9 51 6 113 16 145 22 14 3 34 6 45 8 108 19 123 31 99 78 -28 54 -135 110
-256 133 -10 2 -33 11 -50 20 -36 17 -36 17 -40 8z"/>
<path d="M2433 5264 c32 -35 34 -44 8 -39 -10 2 -36 6 -57 9 -22 4 -61 11 -89
16 -27 5 -66 12 -85 15 -19 3 -47 8 -62 11 -16 3 -28 4 -28 1 0 -2 9 -33 20
-68 15 -46 31 -73 58 -97 35 -32 124 -80 160 -87 9 -2 17 -4 17 -5 0 -5 118
-24 145 -22 38 1 80 20 87 38 3 8 -4 29 -16 45 -13 17 -35 49 -51 72 -30 44
-83 102 -115 127 -11 8 -8 1 8 -16z"/>
<path d="M4107 5255 c-26 -7 -49 -14 -50 -16 -34 -43 -46 -79 -27 -79 6 0 9 3
9 8 -5 27 2 32 26 16 32 -21 58 -11 77 30 14 29 20 33 44 28 20 -4 25 -1 22 9
-6 18 -41 19 -101 4z"/>
<path d="M3245 5219 c-22 -16 -48 -28 -57 -29 -9 0 -19 -4 -22 -9 -5 -8 -43
-19 -91 -26 -11 -2 -33 -6 -50 -9 -37 -8 -191 -8 -225 -1 -85 17 -83 19 -35
-39 39 -47 35 -47 174 -31 159 19 471 111 557 164 16 10 13 11 -16 5 -33 -6
-96 -6 -165 0 -20 2 -43 -7 -70 -25z"/>
<path d="M3582 5105 c-23 -13 -46 -25 -50 -26 -4 -1 -18 -6 -32 -12 -14 -6
-27 -11 -30 -12 -3 -1 -18 -7 -35 -14 -98 -40 -317 -103 -460 -131 -33 -7
-117 -14 -187 -15 -95 -2 -137 -7 -163 -20 -45 -20 -108 -25 -177 -13 -51 9
-221 60 -263 79 -105 47 -213 79 -245 74 -113 -17 -186 -20 -238 -10 l-23 4 5
-142 c3 -78 8 -164 11 -192 2 -27 7 -77 11 -110 3 -33 7 -71 9 -85 1 -14 6
-47 9 -75 7 -58 16 -111 47 -283 15 -85 84 -348 120 -457 18 -55 33 -102 34
-105 2 -10 46 -126 59 -155 8 -16 28 -64 46 -105 33 -75 115 -236 164 -320
l26 -45 -4 75 c-2 41 -13 107 -24 145 -12 39 -24 111 -27 160 -3 50 -7 106
-10 125 -3 19 -8 96 -10 170 -6 181 13 267 89 395 39 66 123 174 159 204 16
14 34 30 41 36 27 27 130 76 236 115 144 51 280 117 390 188 47 30 87 57 90
61 8 10 160 107 204 130 25 13 49 18 67 14 27 -5 80 19 134 61 l20 16 -20 -7
c-11 -4 -35 -15 -53 -25 -18 -10 -46 -18 -63 -18 -52 0 -199 79 -199 106 0 5
22 21 48 37 26 15 65 41 87 58 48 36 187 104 233 114 18 4 32 13 32 21 0 18
-7 17 -58 -11z"/>
<path d="M5374 4651 c-2 -2 -4 -195 -4 -428 l0 -423 29 0 c37 0 42 8 41 67 -1
51 -1 57 -1 131 0 26 0 71 0 100 0 30 1 56 3 58 4 3 58 5 108 3 123 -3 178 46
196 178 15 105 3 187 -35 250 -36 58 -57 65 -202 67 -72 0 -133 -1 -135 -3z
m272 -122 c13 -12 21 -25 19 -30 -3 -4 -1 -10 4 -13 12 -8 11 -132 -1 -166
-14 -43 -56 -60 -145 -60 -56 0 -80 4 -81 13 -5 49 -5 104 0 112 3 6 2 19 -2
30 -4 11 -4 32 1 47 4 15 4 30 -1 33 -5 3 -7 12 -5 20 3 8 7 21 9 29 3 10 24
13 92 10 73 -3 91 -7 110 -25z"/>
<path d="M6033 4423 c-38 -19 -74 -86 -80 -147 -4 -40 -3 -42 25 -44 28 -2 31
1 37 38 9 53 38 80 86 80 51 0 79 -35 79 -100 0 -27 -6 -52 -13 -59 -7 -6 -44
-18 -81 -26 -38 -9 -79 -23 -91 -31 -32 -21 -58 -88 -61 -158 -2 -74 10 -119
44 -157 47 -52 135 -41 178 22 23 35 34 37 34 6 0 -44 66 -77 87 -45 21 35 10
74 -19 69 -11 -1 -10 -4 -12 224 -2 226 -11 277 -58 314 -38 31 -110 37 -155
14z m131 -475 c-23 -47 -49 -69 -88 -75 -50 -8 -74 23 -78 99 -3 63 30 98 109
114 12 2 32 8 45 13 22 8 23 7 26 -55 2 -44 -2 -73 -14 -96z"/>
<path d="M6602 4420 c-12 -11 -30 -35 -39 -53 l-18 -32 -3 41 c-3 35 -7 43
-28 47 -31 6 -35 -2 -34 -65 0 -29 0 -127 0 -218 -2 -356 -3 -340 24 -340 14
0 28 5 32 11 4 7 8 102 9 213 2 203 7 240 42 278 9 10 30 20 47 23 30 6 31 8
30 58 0 44 -3 52 -20 55 -11 1 -29 -7 -42 -18z"/>
<path d="M6940 4433 c-26 -9 -71 -56 -89 -93 -58 -114 -61 -343 -5 -457 44
-90 120 -123 186 -80 38 25 75 93 83 152 3 22 8 46 10 53 3 8 -6 12 -25 12
-31 0 -39 -7 -45 -42 -17 -89 -83 -131 -131 -83 -36 36 -49 96 -47 232 1 86 4
110 24 150 28 57 65 79 102 62 24 -11 53 -61 59 -104 2 -15 11 -20 33 -20 17
0 29 5 29 10 -1 6 -4 29 -8 52 -9 67 -43 129 -81 147 -33 16 -67 19 -95 9z"/>
<path d="M7045 3328 c0 -276 1 -283 20 -283 19 0 20 7 21 283 1 280 0 282 -20
282 -21 0 -22 -2 -21 -282z"/>
<path d="M5833 3573 c-9 -3 -13 -26 -13 -64 0 -48 -3 -57 -15 -53 -8 4 -15 2
-16 -2 0 -5 -2 -17 -4 -28 -2 -11 3 -20 15 -23 17 -5 19 -19 22 -175 3 -149 5
-171 21 -183 10 -7 27 -11 37 -8 27 7 28 59 1 66 -18 4 -19 14 -18 151 1 130
3 146 18 146 10 0 19 10 21 25 4 20 1 26 -18 31 -20 5 -23 12 -22 56 0 52 -8
69 -29 61z"/>
<path d="M5162 3460 c-12 -5 -25 -16 -28 -25 -9 -22 -24 -19 -24 5 0 22 -25
28 -32 8 -3 -7 -4 -101 -4 -208 1 -187 2 -195 21 -195 18 0 20 8 21 140 2 188
29 250 90 210 27 -17 26 -12 28 -210 1 -136 2 -140 22 -141 22 -1 22 0 20 175
-3 189 -10 220 -53 240 -28 13 -30 13 -61 1z"/>
<path d="M5503 3460 c-48 -19 -81 -120 -42 -128 10 -2 19 8 25 29 12 42 35 56
71 43 20 -7 30 -18 33 -39 11 -57 3 -68 -64 -79 -69 -12 -102 -68 -94 -157 10
-101 89 -130 150 -55 15 17 18 18 18 4 0 -24 27 -47 48 -41 21 5 25 53 5 53
-16 0 -15 -15 -17 169 l-2 153 -32 29 c-33 30 -60 35 -99 19z m91 -252 c-5
-84 -38 -127 -89 -114 -29 7 -42 55 -25 95 10 25 43 43 111 60 3 0 4 -18 3
-41z"/>
<path d="M6492 3447 c-12 -13 -23 -30 -23 -38 -1 -8 -4 -1 -8 16 -3 17 -14 31
-24 33 -16 3 -17 -12 -17 -203 0 -176 2 -206 15 -212 9 -3 18 -3 21 0 3 3 6
65 6 139 0 148 12 192 53 208 20 8 25 16 25 45 0 41 -17 46 -48 12z"/>
<path d="M6750 3463 c-97 -38 -118 -325 -30 -405 65 -60 130 -24 165 90 5 19
3 22 -19 22 -19 0 -26 -5 -26 -18 0 -22 -40 -62 -61 -62 -36 1 -69 53 -69 110
l0 28 73 0 c121 0 110 -7 104 65 -12 131 -65 197 -137 170z m80 -98 c5 -13 10
-36 12 -52 l3 -28 -67 -1 c-76 0 -81 6 -53 71 24 59 84 65 105 10z"/>
<path d="M6049 3440 c-1 -20 -1 -276 0 -317 1 -21 11 -44 29 -64 25 -28 32
-31 65 -25 20 4 37 10 37 15 0 4 7 16 16 27 15 19 15 19 11 -3 -5 -21 16 -39
33 -28 4 3 7 96 6 207 -1 194 -2 203 -20 203 -19 0 -20 -8 -21 -150 -1 -125
-4 -155 -19 -177 -25 -39 -55 -46 -78 -18 -16 19 -18 43 -18 185 0 158 -1 164
-20 162 -11 -1 -20 -8 -21 -17z"/>
<path d="M2579 3287 c0 -1 -2 -63 -4 -137 -9 -272 -19 -330 -72 -417 -55 -92
-51 -112 38 -197 88 -84 119 -110 178 -154 48 -34 63 -40 56 -19 -5 14 -12 55
-21 117 -3 24 -17 68 -30 97 -42 91 -46 106 -49 193 -3 62 -13 112 -35 180
-42 126 -52 319 -16 292 14 -11 97 -35 102 -30 2 2 -30 21 -71 41 -41 20 -75
36 -76 34z"/>
<path d="M3530 3189 c-36 -17 -66 -35 -68 -40 -6 -14 -24 -11 -45 9 -19 16
-20 16 -34 -5 -20 -30 -29 -29 -58 5 -17 19 -25 23 -26 12 -1 -8 -2 -19 -4
-25 -1 -5 -3 -17 -3 -25 -2 -10 -10 -6 -28 13 -29 32 -33 31 -39 -9 -2 -16 -7
-49 -10 -74 -4 -25 -10 -61 -15 -80 -16 -62 -24 -134 -20 -185 9 -137 0 -244
-24 -295 -7 -15 -11 -80 -11 -169 0 -120 3 -145 15 -146 8 -2 31 -6 50 -9 19
-4 79 -9 133 -11 l99 -4 -9 42 c-9 49 -9 264 1 422 4 61 8 139 11 175 2 36 8
76 13 90 5 14 10 54 11 90 1 36 4 72 6 80 2 8 6 33 10 54 5 34 33 71 55 71 7
0 67 44 60 44 -3 0 -34 -13 -70 -30z"/>
<path d="M2849 2895 c-5 -52 -4 -73 4 -110 5 -22 10 -48 12 -58 2 -10 5 -50 6
-90 1 -47 11 -97 27 -142 18 -51 25 -92 26 -154 1 -77 3 -84 23 -92 22 -8 22
-7 17 84 -2 50 -14 125 -26 167 -12 41 -22 107 -24 145 -1 39 -9 96 -19 127
-9 31 -18 69 -21 84 -3 15 -9 35 -14 43 -8 14 -10 13 -11 -4z"/>
<path d="M5110 2855 c0 -7 -7 -26 -15 -41 -18 -35 -19 -65 -2 -61 10 2 65 90
67 107 0 3 -11 6 -25 6 -14 1 -25 -4 -25 -11z"/>
<path d="M7053 2852 c-8 -5 -13 -37 -13 -92 0 -47 0 -93 0 -102 -1 -15 -1
-129 -1 -190 1 -130 6 -180 19 -185 8 -3 17 -1 21 5 10 16 6 551 -5 562 -5 5
-15 6 -21 2z"/>
<path d="M5729 2845 c-3 -2 -3 -20 -1 -39 3 -27 8 -34 23 -33 27 2 28 77 1 77
-10 0 -21 -2 -23 -5z"/>
<path d="M4813 2692 c-10 -10 -23 -27 -29 -38 -10 -17 -11 -16 -10 11 1 24 -3
30 -19 30 -19 0 -20 -7 -20 -202 0 -112 2 -203 5 -204 3 0 12 -2 21 -4 14 -2
16 14 17 135 0 108 4 145 17 173 16 35 39 52 55 42 4 -3 8 13 8 35 1 45 -16
53 -45 22z"/>
<path d="M5050 2694 c-45 -28 -65 -95 -65 -214 0 -93 3 -110 24 -147 33 -57
67 -70 128 -49 24 8 66 86 61 112 -5 27 -36 25 -43 -3 -8 -35 -36 -59 -64 -59
-30 1 -59 46 -63 97 -3 38 -9 36 129 38 l53 1 -6 56 c-14 150 -76 217 -154
168z m79 -63 c14 -12 24 -35 27 -63 l6 -45 -66 1 c-36 1 -67 6 -67 11 -5 39
17 90 44 103 30 15 31 14 56 -7z"/>
<path d="M5420 2704 c-61 -17 -92 -202 -55 -331 28 -96 97 -130 144 -72 l18
23 -3 -44 c-5 -61 -22 -99 -50 -106 -30 -8 -64 4 -64 21 0 20 -28 45 -44 39
-15 -6 -10 -33 14 -86 20 -43 89 -52 131 -15 47 40 52 74 54 327 2 224 1 236
-16 237 -19 2 -23 -7 -20 -37 1 -8 -10 0 -24 18 -25 30 -45 37 -85 26z m59
-64 c29 -15 44 -66 45 -155 1 -92 -13 -131 -53 -146 -47 -19 -72 27 -77 144
-4 86 15 152 44 160 10 3 18 5 20 6 2 0 11 -3 21 -9z"/>
<path d="M5980 2682 c-66 -67 -75 -274 -16 -364 20 -31 67 -52 95 -43 24 7 70
63 76 91 2 11 7 37 12 59 10 46 9 93 -1 150 -23 120 -102 171 -166 107z m104
-65 c17 -23 21 -43 21 -115 0 -52 -6 -100 -14 -120 -40 -96 -118 -40 -123 89
-7 145 57 225 116 146z"/>
<path d="M6370 2680 c-26 -28 -27 -28 -26 -7 1 16 -5 22 -19 22 -19 0 -20 -7
-20 -205 0 -198 1 -205 20 -205 19 0 20 7 22 137 1 145 13 202 43 218 28 15
38 12 57 -16 14 -22 17 -53 18 -180 1 -85 4 -157 8 -160 3 -4 13 -4 21 -1 20
8 21 303 1 360 -24 71 -78 87 -125 37z"/>
<path d="M6724 2698 c-25 -12 -45 -50 -50 -95 -2 -27 1 -33 17 -33 12 0 19 7
19 18 0 31 29 62 59 62 34 0 47 -14 54 -56 6 -39 -2 -53 -34 -59 -94 -18 -129
-55 -129 -136 0 -61 13 -94 44 -115 31 -20 76 -8 106 28 15 18 19 19 20 7 0
-24 33 -50 49 -39 20 12 25 50 6 50 -8 0 -15 6 -16 13 0 6 -1 75 -3 152 -1
108 -6 147 -19 171 -22 42 -75 56 -123 32z m101 -251 c2 -38 -12 -75 -39 -99
-54 -49 -105 18 -72 94 8 17 35 30 68 33 10 1 21 5 25 8 10 11 17 -1 18 -36z"/>
<path d="M5729 2645 c0 -30 0 -111 0 -180 0 -191 -1 -181 21 -182 19 -2 20 4
20 208 0 202 -1 209 -20 209 -18 0 -20 -7 -21 -55z"/>
<path d="M1681 1860 c-4 -3 -7 -169 -7 -370 l0 -366 30 4 31 4 -2 291 c-1 161
2 285 6 277 5 -8 36 -89 70 -180 34 -91 66 -174 71 -185 5 -11 23 -58 41 -105
39 -104 42 -108 77 -102 l29 4 0 367 0 366 -29 2 -28 1 0 -291 c0 -160 -3
-287 -6 -284 -7 7 -172 443 -201 530 -15 43 -19 47 -45 45 -16 -1 -32 -5 -37
-8z"/>
<path d="M4324 1859 c-3 -6 -6 -66 -6 -135 -1 -68 -3 -122 -6 -119 -3 2 -10
15 -16 27 -17 34 -56 52 -97 44 -140 -26 -152 -477 -16 -551 46 -24 98 -8 121
38 12 25 16 28 17 12 1 -11 1 -26 0 -32 -1 -8 10 -13 26 -13 l28 0 -1 363 c-1
199 -2 364 -3 367 -2 10 -40 9 -47 -1z m-56 -276 c33 -29 49 -99 47 -203 -1
-69 -6 -106 -20 -133 -36 -75 -99 -72 -131 7 -21 52 -25 194 -9 261 20 76 69
106 113 68z"/>
<path d="M4490 1815 c0 -47 2 -51 25 -53 14 -1 25 2 26 6 4 27 5 79 1 89 -2 7
-15 12 -28 11 -22 -2 -24 -7 -24 -53z"/>
<path d="M5299 1802 c0 -37 0 -202 0 -366 0 -310 1 -319 41 -309 16 4 17 27
16 303 0 164 3 296 7 293 5 -3 6 -7 4 -10 -3 -2 1 -30 8 -61 7 -31 16 -73 19
-92 7 -46 14 -78 20 -98 3 -9 8 -35 11 -57 4 -22 8 -48 11 -57 3 -9 7 -27 9
-40 3 -13 10 -48 16 -78 15 -71 17 -84 18 -91 2 -13 40 -17 54 -5 8 6 26 69
41 146 27 139 30 150 47 236 5 28 12 62 14 76 30 162 32 150 31 -144 -1 -158
1 -295 4 -305 5 -18 40 -25 50 -11 3 4 6 171 5 370 l0 363 -42 1 c-45 2 -42 5
-57 -71 -3 -11 -9 -40 -16 -65 -6 -25 -11 -52 -12 -60 0 -8 -5 -35 -10 -60 -5
-25 -12 -56 -14 -70 -3 -14 -7 -33 -10 -43 -3 -10 -8 -32 -11 -50 -7 -48 -10
-60 -17 -87 -8 -32 -14 -70 -15 -94 -1 -11 -3 -17 -6 -15 -4 5 -48 205 -61
279 -3 19 -20 102 -37 185 l-32 149 -42 3 -43 2 -1 -67z"/>
<path d="M6244 1862 c-6 -4 -11 -27 -10 -52 1 -41 3 -45 26 -45 23 0 25 4 28
53 3 45 0 52 -15 52 -10 0 -23 -4 -29 -8z"/>
<path d="M2215 1653 c-108 -101 -105 -434 5 -514 81 -59 162 -8 200 125 29 99
14 266 -31 346 -39 69 -123 89 -174 43z m123 -76 c6 -7 17 -35 25 -64 23 -76
12 -273 -14 -273 -5 0 -9 -6 -9 -13 0 -14 -40 -37 -64 -37 -23 0 -57 47 -71
99 -15 57 -13 186 3 238 6 18 22 44 37 57 22 21 30 23 55 14 16 -5 33 -15 38
-21z"/>
<path d="M2638 1651 c-12 -15 -28 -37 -34 -47 -10 -17 -11 -15 -9 13 3 39 -5
53 -30 49 -19 -3 -20 -12 -21 -265 0 -231 2 -263 16 -271 35 -19 39 1 40 184
1 98 6 191 12 206 12 35 39 61 67 63 11 1 21 8 22 17 0 8 1 30 2 48 2 27 -2
32 -20 32 -11 0 -32 -13 -45 -29z"/>
<path d="M2893 1670 c-13 -5 -23 -13 -23 -17 0 -4 -9 -19 -19 -32 l-18 -23 1
33 c1 30 -2 34 -24 34 l-25 0 -1 -268 -1 -267 27 0 27 0 0 173 c0 184 10 244
45 277 29 27 54 25 74 -6 15 -21 17 -56 17 -235 l1 -209 27 0 28 0 0 185 c0
163 3 192 20 231 22 50 42 62 76 46 33 -15 40 -61 40 -278 l0 -184 27 0 27 0
0 208 c-1 114 -5 225 -11 248 -21 89 -97 123 -150 67 -14 -16 -27 -34 -30 -42
-2 -8 -14 3 -31 28 -29 43 -55 51 -104 31z"/>
<path d="M3411 1667 c-36 -18 -60 -56 -70 -109 -9 -53 -7 -58 26 -58 17 0 23
6 23 20 0 30 28 80 45 81 8 1 21 2 28 3 56 8 93 -79 59 -140 -5 -9 -12 -15
-16 -14 -13 3 -91 -12 -111 -23 -32 -16 -51 -40 -65 -81 -15 -47 -8 -141 13
-183 17 -32 60 -55 92 -49 11 3 24 5 29 5 5 1 24 17 42 37 29 30 34 32 34 15
0 -27 47 -63 68 -52 24 14 25 68 1 74 -18 5 -19 17 -20 189 -1 100 -1 187 0
191 1 5 -8 26 -20 47 -31 55 -102 76 -158 47z m123 -332 c-3 -90 -39 -144 -95
-145 -82 -1 -83 158 -2 175 23 5 96 30 99 34 0 1 -1 -28 -2 -64z"/>
<path d="M3817 1655 c-15 -14 -27 -30 -27 -35 0 -6 -5 -10 -11 -10 -5 0 -9 8
-8 18 3 33 -1 40 -25 38 l-24 -1 -1 -265 c0 -270 1 -283 38 -273 15 4 17 23
16 171 0 227 19 292 87 300 20 2 31 -3 43 -22 23 -35 23 -38 24 -253 l1 -193
28 0 28 0 -1 223 c-1 204 -3 227 -21 263 -35 66 -98 83 -147 39z"/>
<path d="M4742 1660 c-31 -19 -64 -74 -79 -133 -3 -12 -7 -69 -9 -127 -2 -85
1 -116 17 -165 34 -99 87 -138 159 -116 43 13 72 47 95 112 20 57 19 65 -11
64 -21 0 -29 -7 -38 -34 -16 -48 -58 -78 -92 -65 -40 14 -64 54 -71 116 l-6
56 117 -1 c72 -1 116 2 117 8 3 22 2 53 -4 107 -18 161 -100 236 -195 178z
m89 -70 c26 -14 50 -63 53 -110 l3 -38 -89 -1 -90 -1 4 37 c11 88 66 141 119
113z"/>
<path d="M5890 1642 c-27 -33 -40 -71 -40 -118 0 -29 37 -34 46 -6 22 68 44
92 82 86 6 -1 19 -2 27 -3 36 -3 56 -108 26 -135 -9 -8 -33 -17 -54 -20 -107
-17 -146 -64 -143 -176 1 -36 7 -77 13 -91 13 -29 58 -69 79 -69 33 0 92 33
104 58 l12 27 13 -33 c15 -34 53 -57 69 -41 16 14 16 69 1 69 -21 0 -24 23
-23 212 0 144 -3 183 -17 211 -20 43 -70 69 -126 65 -33 -2 -46 -9 -69 -36z
m156 -310 c-6 -93 -40 -142 -100 -142 -33 0 -56 35 -56 85 0 55 18 77 82 97
81 25 79 26 74 -40z"/>
<path d="M6522 1672 c-6 -5 -24 -24 -38 -43 -26 -34 -26 -34 -22 -7 6 30 -7
45 -34 45 -17 0 -18 -20 -18 -271 l0 -271 25 0 c14 0 25 2 26 5 1 3 2 86 3
185 2 158 5 186 23 227 22 48 47 64 83 53 38 -12 44 -42 47 -235 1 -102 2
-195 3 -206 0 -24 34 -39 47 -20 13 17 7 405 -6 453 -15 56 -53 93 -94 93 -18
0 -38 -4 -45 -8z"/>
<path d="M6858 1648 c-55 -50 -79 -132 -81 -273 0 -59 17 -144 38 -184 24 -48
72 -81 108 -77 18 2 37 4 44 5 33 3 90 92 96 151 2 20 -3 24 -25 26 -21 2 -28
-2 -28 -14 0 -30 -38 -81 -65 -88 -55 -14 -99 40 -107 131 l-3 40 107 1 c59 1
113 4 121 7 26 10 -4 191 -43 255 -37 61 -108 69 -162 20z m112 -66 c21 -17
55 -116 45 -132 -3 -5 -44 -7 -92 -6 -66 1 -87 4 -85 14 6 32 11 58 11 68 2
21 58 74 79 74 11 0 30 -8 42 -18z"/>
<path d="M4490 1395 l0 -272 28 5 27 4 -1 261 c-1 144 -2 264 -3 268 0 3 -12
5 -26 5 l-25 0 0 -271z"/>
<path d="M6239 1666 c-1 -1 -3 -121 -4 -268 l-1 -266 24 -5 c13 -2 26 1 28 7
2 6 3 128 2 270 l-3 259 -22 2 c-13 1 -24 1 -24 1z"/>
<path d="M5039 1454 c-7 -19 -2 -84 6 -87 6 -1 39 -3 75 -2 l65 0 3 47 2 47
-75 -1 c-41 0 -76 -2 -76 -4z"/>
<path d="M878 763 c-24 -6 -21 34 -32 -423 l-7 -265 26 -28 c34 -36 64 -47
123 -47 60 0 91 16 116 59 21 37 21 26 29 472 2 102 0 195 -4 206 -8 21 -40
35 -57 24 -5 -3 -10 -82 -11 -191 -4 -466 -9 -510 -55 -510 -41 0 -67 13 -80
39 -12 26 -13 86 -5 486 2 88 0 166 -4 173 -8 12 -10 13 -39 5z"/>
<path d="M3759 719 c-28 -28 -21 -60 17 -75 28 -12 34 -11 53 7 23 22 28 58 9
77 -18 18 -56 14 -79 -9z"/>
<path d="M4677 722 c-10 -10 -17 -30 -17 -43 0 -30 44 -51 77 -36 24 11 36 53
22 79 -13 24 -61 23 -82 0z"/>
<path d="M6690 720 c-25 -25 -26 -56 -1 -70 43 -22 81 -4 88 42 7 47 -50 65
-87 28z"/>
<path d="M7071 721 c-27 -27 -27 -56 0 -75 45 -31 111 27 82 73 -15 25 -59 25
-82 2z"/>
<path d="M2550 710 c-11 -7 -14 -26 -13 -77 l3 -68 -35 -2 c-20 -1 -42 -9 -50
-17 -13 -13 -13 -16 1 -30 16 -16 31 -20 71 -16 21 1 22 -2 18 -52 -10 -98 -7
-353 4 -380 19 -49 108 -76 160 -49 41 23 15 61 -39 56 -14 -1 -33 2 -43 7
-18 9 -19 23 -14 211 3 111 6 203 6 205 1 1 23 2 49 2 26 0 53 5 59 11 15 15
4 49 -16 50 -9 0 -34 1 -56 2 l-40 2 -3 73 c-2 39 -7 72 -12 72 -4 0 -14 2
-22 5 -7 3 -20 0 -28 -5z"/>
<path d="M6060 710 c-11 -7 -15 -28 -15 -77 l0 -67 -35 -4 c-19 -2 -41 -9 -49
-17 -21 -20 19 -50 63 -47 l34 3 -6 -38 c-3 -21 -6 -118 -6 -217 l-1 -178 34
-29 c37 -30 80 -39 124 -25 23 7 28 13 25 35 -3 23 -7 26 -45 26 -23 0 -47 5
-54 12 -12 12 -13 73 -6 328 l2 80 52 5 c61 6 70 13 56 42 -9 20 -17 23 -62
21 -51 -2 -51 -2 -52 30 -1 18 -1 51 -1 75 1 23 -2 42 -7 42 -5 0 -15 2 -23 5
-7 3 -20 0 -28 -5z"/>
<path d="M4553 610 c-17 -7 -23 -18 -23 -39 0 -16 5 -31 12 -33 6 -2 11 -21
10 -41 -1 -20 3 -37 8 -37 4 0 25 19 45 43 30 34 35 47 31 71 -4 16 -7 31 -9
32 -9 9 -56 12 -74 4z"/>
<path d="M2775 584 c-17 -17 -17 -17 -19 -293 -1 -207 3 -231 37 -231 30 1 33
19 33 190 0 96 3 187 7 201 11 44 45 73 85 75 20 1 40 3 44 3 11 2 0 44 -14
53 -25 15 -67 8 -98 -19 -19 -16 -31 -21 -30 -12 6 40 -19 58 -45 33z"/>
<path d="M3398 583 c-23 -6 -26 -29 -10 -88 7 -27 19 -84 27 -125 8 -41 17
-86 20 -100 3 -14 8 -47 11 -75 11 -86 41 -125 97 -125 45 0 94 82 111 185 3
17 7 41 10 55 3 13 8 42 11 65 4 22 13 65 21 96 18 73 18 108 -1 115 -24 10
-44 -14 -62 -75 -9 -31 -18 -60 -19 -66 -13 -65 -26 -138 -30 -170 -6 -49 -33
-125 -44 -125 -4 0 -11 15 -14 33 -3 17 -8 43 -11 57 -3 14 -8 39 -11 55 -3
17 -10 50 -15 75 -6 25 -12 56 -14 70 -11 88 -45 151 -77 143z"/>
<path d="M5078 583 c-25 -6 -26 -30 -5 -103 10 -36 20 -81 22 -100 2 -19 7
-45 10 -57 11 -48 15 -69 20 -108 16 -108 40 -145 95 -145 31 0 67 31 81 68
20 53 47 165 54 227 3 22 9 55 14 73 5 17 8 32 6 32 -3 0 0 12 6 28 21 53 20
71 -2 83 -19 10 -25 8 -39 -11 -19 -25 -44 -116 -65 -230 -2 -14 -7 -41 -10
-60 -4 -19 -8 -44 -10 -55 -6 -47 -44 -98 -46 -62 0 6 -2 19 -4 27 -1 8 -5 31
-9 50 -3 19 -8 46 -11 60 -3 14 -10 48 -15 76 -5 28 -14 71 -20 95 -7 24 -14
53 -16 64 -5 26 -35 53 -56 48z"/>
<path d="M6885 583 c-63 -16 -84 -76 -85 -243 -1 -170 8 -211 53 -254 45 -43
151 -30 163 21 4 13 4 26 2 28 -12 12 -55 11 -70 -2 -10 -9 -25 -12 -37 -8
-28 9 -38 67 -35 200 2 61 3 122 4 136 0 15 8 37 18 49 17 21 20 22 48 8 27
-14 59 -16 71 -4 14 14 -9 54 -34 61 -42 11 -76 13 -98 8z"/>
<path d="M1204 568 c-10 -15 -11 -138 -1 -138 4 0 6 -4 3 -9 -3 -5 -8 -92 -10
-195 l-5 -186 34 0 c31 0 34 3 39 38 3 20 7 122 8 226 3 186 3 189 27 204 22
15 24 14 40 -7 15 -19 17 -49 15 -237 l-2 -214 24 -6 c49 -12 51 -1 48 232 -3
225 -8 259 -47 284 -26 16 -164 23 -173 8z"/>
<path d="M1951 564 c-30 -13 -52 -54 -53 -101 -1 -40 8 -53 37 -53 24 0 28 6
40 66 7 36 37 50 57 27 7 -8 12 -43 13 -77 0 -53 -2 -61 -18 -58 -10 2 -33 -2
-52 -8 -124 -41 -86 -351 40 -322 11 2 44 5 73 6 40 1 57 6 68 20 21 29 17 46
-10 46 -13 0 -26 6 -28 13 -2 6 -3 90 -1 185 3 189 -4 227 -50 256 -27 18 -73
18 -116 0z m81 -259 c10 -4 13 -30 12 -100 0 -52 -3 -97 -6 -101 -4 -3 -15 -3
-26 0 -43 14 -59 149 -22 186 22 22 23 22 42 15z"/>
<path d="M2201 566 c-13 -18 -5 -440 10 -467 24 -45 50 -60 100 -55 26 2 51 1
55 -4 14 -13 54 8 54 27 0 10 1 124 3 253 2 129 2 241 -1 248 -6 18 -46 14
-59 -6 -7 -12 -12 -77 -13 -173 -3 -265 -6 -288 -46 -289 -35 0 -39 30 -37
246 2 157 -1 214 -10 222 -16 12 -45 11 -56 -2z"/>
<path d="M4343 565 c-47 -33 -71 -143 -42 -197 7 -12 39 -56 71 -96 69 -84 85
-125 63 -159 -25 -37 -51 -29 -74 22 -16 36 -25 45 -44 45 -32 0 -38 -17 -22
-65 20 -56 47 -79 94 -78 81 2 124 46 123 125 -1 45 -7 57 -91 156 -52 62 -61
78 -60 110 1 55 12 85 31 88 27 4 43 -27 47 -93 2 -21 59 -16 66 6 7 22 -1 76
-16 102 -22 41 -107 61 -146 34z"/>
<path d="M4803 567 c-3 -5 -7 -124 -9 -264 -3 -253 -3 -254 19 -262 44 -16 52
9 54 168 3 266 5 282 32 299 22 15 24 14 37 -3 8 -10 14 -33 15 -49 0 -17 1
-116 2 -221 l2 -190 28 -1 c15 -1 31 4 34 9 10 16 4 433 -6 459 -18 48 -48 63
-127 64 -41 1 -77 -3 -81 -9z"/>
<path d="M5713 567 c-10 -16 -12 -511 -2 -523 14 -17 49 -5 58 19 4 12 9 93
10 181 3 143 6 239 10 257 0 4 12 9 26 12 44 8 49 -17 47 -250 l-3 -212 26 -7
c44 -11 50 5 48 123 -1 59 -2 161 -2 227 l-1 118 -33 33 c-32 32 -36 33 -106
32 -40 -1 -75 -5 -78 -10z"/>
<path d="M1543 562 c-12 -2 -30 -15 -39 -30 -16 -23 -19 -52 -20 -201 -1 -191
7 -256 35 -284 34 -35 142 -26 166 13 20 33 23 70 7 90 -22 28 -51 17 -59 -21
-12 -61 -67 -62 -77 -1 -8 51 -7 102 2 103 4 0 22 2 39 3 39 3 71 29 89 73 17
40 16 147 -1 190 -19 45 -84 75 -142 65z m53 -70 c22 -14 34 -52 34 -106 0
-65 -26 -104 -58 -87 -14 8 -17 23 -16 93 1 45 2 89 3 96 1 13 20 16 37 4z"/>
<path d="M3043 555 c-45 -19 -52 -54 -51 -264 1 -195 10 -234 58 -258 33 -17
109 -7 136 18 24 22 32 93 12 105 -31 20 -55 7 -61 -32 -13 -83 -72 -42 -76
53 l-2 59 36 -1 c43 -2 88 29 103 73 13 37 12 138 -1 176 -13 39 -27 53 -71
71 -42 18 -43 18 -83 0z m64 -63 c34 -22 43 -152 13 -182 -10 -10 -27 -16 -37
-14 -16 4 -18 16 -17 92 1 48 2 93 3 100 1 13 20 16 38 4z"/>
<path d="M3930 559 c-50 -18 -54 -39 -55 -244 -2 -257 14 -295 116 -290 65 4
99 33 101 88 1 41 -2 47 -29 51 -22 4 -42 -21 -43 -51 0 -13 -4 -24 -10 -24
-36 -5 -46 -2 -56 18 -6 13 -10 47 -10 75 1 52 2 53 31 54 53 1 73 14 94 58
25 51 28 150 6 202 -10 25 -26 40 -57 54 -48 22 -53 22 -88 9z m65 -73 c27
-20 34 -135 11 -171 -9 -14 -25 -24 -34 -23 -14 3 -18 18 -22 93 -3 50 -3 96
-1 103 4 16 23 15 46 -2z"/>
<path d="M5490 561 c-48 -13 -57 -53 -58 -245 0 -246 14 -288 101 -291 48 -2
92 16 107 44 12 23 14 91 3 92 -5 0 -16 2 -25 4 -22 4 -37 -15 -40 -49 -1 -14
-6 -27 -10 -27 -50 -8 -70 21 -66 96 3 48 4 50 33 50 43 0 84 30 102 73 18 43
13 166 -8 200 -26 41 -90 66 -139 53z m57 -69 c35 -22 42 -163 10 -187 -10 -7
-26 -11 -35 -8 -14 3 -17 18 -17 96 -1 98 9 120 42 99z"/>
<path d="M6293 546 c-29 -25 -33 -59 -34 -251 0 -172 6 -214 36 -244 40 -41
139 -33 167 12 20 32 22 81 4 96 -21 18 -56 -3 -56 -34 0 -27 -30 -48 -53 -39
-19 7 -27 36 -27 101 0 47 2 52 21 48 32 -6 83 19 104 51 26 40 27 179 2 218
-39 59 -119 80 -164 42z m83 -54 c16 -10 28 -50 29 -97 2 -41 -12 -94 -23 -96
-4 0 -15 -2 -24 -4 -10 -2 -19 0 -19 3 -4 21 -5 188 -2 195 5 9 25 9 39 -1z"/>
<path d="M3764 549 c-4 -6 -8 -93 -9 -193 -2 -99 -5 -209 -7 -243 -3 -34 -2
-66 1 -71 10 -14 37 -21 51 -12 17 11 19 19 26 185 9 220 10 315 4 326 -10 15
-58 21 -66 8z"/>
<path d="M4683 548 c-4 -7 -9 -78 -9 -158 -1 -80 -4 -191 -7 -247 -5 -88 -4
-104 10 -111 19 -11 53 -4 54 12 1 6 3 25 4 41 2 17 7 125 11 242 6 206 6 211
-14 222 -27 14 -39 14 -49 -1z"/>
<path d="M6695 549 c-5 -6 -10 -96 -11 -198 -2 -102 -5 -214 -8 -249 -3 -61 2
-74 32 -78 31 -5 41 40 48 221 7 175 8 294 2 300 -12 12 -57 15 -63 4z"/>
<path d="M7075 551 c-3 -7 -9 -100 -11 -209 -3 -108 -6 -219 -8 -246 -3 -53
12 -77 43 -69 11 3 23 13 25 22 11 38 26 475 16 491 -9 14 -57 22 -65 11z"/>
</g>
</svg>
