<?xml version="1.0" encoding="UTF-8"?><svg id="Calque_1" xmlns="http://www.w3.org/2000/svg" xmlns:xlink="http://www.w3.org/1999/xlink" viewBox="0 0 589.61 212.6"><defs><style>.cls-1{fill:url(#Dégradé_sans_nom_287);}.cls-2{fill:#e2effb;}.cls-3{fill:url(#Dégradé_sans_nom_14-2);}.cls-4{fill:url(#Dégradé_sans_nom_14);}.cls-5{fill:url(#Dégradé_sans_nom_287-3);}.cls-6{fill:url(#Dégradé_sans_nom_287-2);}.cls-7{fill:url(#Dégradé_sans_nom_14-3);}.cls-8{fill:url(#Dégradé_sans_nom_287-4);}.cls-9{fill:url(#Dégradé_sans_nom_14-4);}</style><linearGradient id="Dégradé_sans_nom_287" x1="228.63" y1="61.6" x2="266.88" y2="61.6" gradientUnits="userSpaceOnUse"><stop offset=".33" stop-color="#ec6568"/><stop offset=".74" stop-color="#ed6d4e"/><stop offset="1" stop-color="#ec6445"/><stop offset="1" stop-color="#e63527"/><stop offset="1" stop-color="#e4221b"/><stop offset="1" stop-color="#e4221b"/><stop offset="1" stop-color="#e4221b"/></linearGradient><linearGradient id="Dégradé_sans_nom_287-2" x1="225.2" y1="108.69" x2="255.83" y2="108.69" xlink:href="#Dégradé_sans_nom_287"/><linearGradient id="Dégradé_sans_nom_287-3" x1="225.78" y1="156.8" x2="254.18" y2="156.8" xlink:href="#Dégradé_sans_nom_287"/><linearGradient id="Dégradé_sans_nom_287-4" x1="182.79" y1="77.49" x2="196.08" y2="77.49" xlink:href="#Dégradé_sans_nom_287"/><linearGradient id="Dégradé_sans_nom_14" x1="2.58" y1="131.92" x2="105.4" y2="131.92" gradientUnits="userSpaceOnUse"><stop offset="0" stop-color="#c8c8c8"/><stop offset=".3" stop-color="#626161"/><stop offset=".61" stop-color="#1e1e1d"/><stop offset=".87" stop-color="#000"/></linearGradient><linearGradient id="Dégradé_sans_nom_14-2" x1="46.13" y1="56.35" x2="173.55" y2="56.35" xlink:href="#Dégradé_sans_nom_14"/><linearGradient id="Dégradé_sans_nom_14-3" x1="123.46" y1="151.14" x2="171.93" y2="151.14" xlink:href="#Dégradé_sans_nom_14"/><linearGradient id="Dégradé_sans_nom_14-4" x1="166.44" y1="99.78" x2="206.16" y2="99.78" xlink:href="#Dégradé_sans_nom_14"/></defs><path class="cls-2" d="M311.97,109.15c0,57.13-46.31,98.89-103.44,98.89s-103.44-41.77-103.44-98.89S151.4,5.71,208.53,5.71s103.44,34.19,103.44,103.44Z"/><g><path class="cls-1" d="M257.15,74.33c.7,1.63,1.84,2.85,3.39,3.62,1.51,.75,3.48,1.14,5.86,1.14h.48v-2.08l-.39-.07c-1.18-.23-1.97-.97-2.41-2.26-.48-1.4-.72-3.56-.72-6.43v-24.12h-7.12l-9.61,23-11.21-22.74-.13-.27h-6.66v32.79h3.37v-24.66l12.02,24.39,.13,.27h2.21l9.77-23.36v14.68c0,2.47,.35,4.52,1.03,6.1Z"/><path d="M291.28,76.91v-13.5c0-1.75-.23-3.3-.68-4.62-.46-1.34-1.15-2.46-2.05-3.35-.9-.88-2.01-1.55-3.29-1.99-1.27-.43-2.73-.65-4.35-.65s-3.09,.12-4.45,.37c-1.43,.26-2.49,.75-3.14,1.48-.64,.72-1.03,1.57-1.16,2.53-.12,.88-.17,1.76-.17,2.62v.48h3.52l.08-.38c.36-1.66,.92-2.74,1.67-3.21,.8-.5,1.67-.75,2.68-.75,.86,0,1.6,.21,2.21,.64,.6,.42,1.06,1.15,1.38,2.16,.31,.98,.48,2.31,.5,3.96h-.24c-3.48,0-6.22,.29-8.14,.86-2,.59-3.41,1.48-4.2,2.65-.77,1.15-1.17,2.57-1.17,4.2,0,1.03,.19,1.99,.57,2.85,.38,.87,.96,1.62,1.71,2.23,.73,.6,1.65,1.07,2.71,1.41,1.06,.33,2.3,.5,3.69,.5,1.52,0,2.84-.3,3.9-.88,.88-.48,1.55-1.02,2.02-1.61l1.56,2.01h4.82Zm-12.16-9.95c.92-.76,2.5-1.14,4.69-1.14h.24v5.46c-.24,.59-.68,1.2-1.31,1.83-.62,.62-1.38,.92-2.31,.92-.82,0-1.45-.28-1.92-.86-.49-.6-.74-1.53-.74-2.76,0-1.57,.44-2.69,1.34-3.44Z"/><path d="M296.63,55.75c.69,.57,1.29,1.43,1.77,2.55l8.6,18.82-.94,2.42c-.66,1.72-1.52,2.88-2.54,3.47-1.05,.6-2.38,.9-3.96,.9h-.48v2.65h2.41c1.18,0,2.26-.19,3.21-.56,.97-.38,1.88-1.09,2.68-2.1,.79-.99,1.52-2.39,2.17-4.16l9.99-26.46h-3.58l-5.59,14.77-5.07-11.11c-.58-1.27-1.47-2.29-2.64-3.03-1.16-.74-2.53-1.11-4.07-1.11h-4.73v1.87l.42,.05c.87,.11,1.66,.46,2.34,1.03Z"/><path d="M328.39,75.78c1.74,1.07,3.8,1.61,6.14,1.61,1.83,0,3.38-.29,4.61-.87,1.22-.57,2.24-1.28,3.04-2.1,.77-.8,1.4-1.58,1.87-2.32l.24-.38-2.24-1.66-.29,.39c-.8,1.08-1.72,2.01-2.72,2.75-.96,.71-2.24,1.07-3.79,1.07-1.43,0-2.55-.59-3.45-1.81-.87-1.18-1.33-3.2-1.37-6.02h14.49l.22-3.52c0-2.02-.5-3.81-1.47-5.33-.98-1.51-2.33-2.71-4-3.54-1.67-.83-3.56-1.26-5.62-1.26s-3.96,.47-5.64,1.41c-1.68,.94-3.03,2.35-4,4.17-.97,1.81-1.46,4.07-1.46,6.71,0,2.32,.47,4.43,1.4,6.27,.94,1.86,2.3,3.34,4.04,4.41Zm2.04-12.47c.03-1.84,.21-3.3,.55-4.37,.36-1.11,.82-1.9,1.37-2.36,.54-.44,1.1-.66,1.7-.66,1.05,0,1.89,.51,2.56,1.56,.66,1.05,1.02,3.01,1.06,5.82h-7.23Z"/><path d="M351.44,56.73c.36,.82,.54,1.93,.54,3.3v16.88h7.23v-19.77c.38-.26,.84-.48,1.38-.66,1.25-.41,3.13-.52,4.35,.24,.59,.36,1.07,.97,1.43,1.8,.37,.87,.56,2.08,.56,3.57v14.81h7.23v-14.76c0-2.16-.37-3.94-1.09-5.31-.74-1.39-1.85-2.43-3.29-3.08-1.41-.64-3.18-.96-5.26-.96s-3.62,.26-4.76,.76c-.88,.4-1.61,.82-2.18,1.26-.37-.49-.83-.86-1.38-1.09-.69-.3-1.62-.45-2.77-.45h-5.25v2.41h.96c1.25,0,2,.34,2.31,1.04Z"/><path d="M381.58,56.73c.36,.82,.54,1.93,.54,3.3v16.88h7.23v-19.77c.38-.26,.84-.48,1.38-.66,1.25-.41,3.13-.51,4.35,.24,.59,.36,1.07,.97,1.43,1.8,.37,.87,.56,2.08,.56,3.57v14.81h7.23v-14.76c0-2.16-.37-3.95-1.09-5.31-.74-1.39-1.84-2.43-3.29-3.08-1.41-.64-3.18-.96-5.26-.96s-3.62,.26-4.76,.76c-.88,.39-1.61,.82-2.18,1.26-.37-.49-.83-.86-1.38-1.09-.69-.3-1.62-.45-2.77-.45h-5.25v2.41h.96c1.25,0,2,.34,2.31,1.04Z"/><path d="M415.61,75.78c1.74,1.07,3.81,1.61,6.14,1.61,1.83,0,3.39-.29,4.61-.87,1.22-.57,2.25-1.28,3.04-2.1,.77-.81,1.4-1.59,1.86-2.32l.24-.38-2.24-1.66-.29,.39c-.8,1.08-1.72,2-2.72,2.75-.96,.7-2.23,1.06-3.79,1.06-1.43,0-2.56-.59-3.45-1.81-.87-1.18-1.33-3.2-1.37-6.02h14.49l.22-3.52c0-2.01-.5-3.81-1.47-5.33-.98-1.51-2.32-2.71-4-3.55-1.67-.83-3.56-1.26-5.62-1.26s-3.96,.47-5.64,1.41c-1.68,.95-3.03,2.35-4,4.17-.97,1.81-1.45,4.07-1.45,6.71,0,2.32,.47,4.43,1.4,6.27,.94,1.86,2.29,3.34,4.03,4.41Zm2.04-12.47c.03-1.84,.21-3.31,.55-4.37,.36-1.11,.82-1.9,1.36-2.36,.55-.44,1.1-.66,1.7-.66,1.06,0,1.89,.51,2.56,1.56,.66,1.05,1.02,3.01,1.06,5.82h-7.23Z"/><path class="cls-6" d="M252.46,113.59l-15.73-18.29c-.79-1.03-1.8-1.81-3.02-2.32-1.2-.5-2.77-.76-4.65-.76h-3.86v2.41h.72c1.53,0,2.56,.35,3.06,1.05,.54,.76,.8,1.68,.8,2.81v26.53h3.37v-23.05l19.75,23.2h2.92v-32.94h-3.37v21.38Z"/><path d="M280.49,103.55c-.9-.88-2.01-1.55-3.29-1.99-1.27-.43-2.73-.65-4.35-.65s-3.11,.12-4.45,.37c-1.43,.26-2.49,.76-3.14,1.48-.64,.71-1.03,1.56-1.16,2.53-.11,.89-.17,1.77-.17,2.62v.48h3.52l.08-.38c.36-1.66,.92-2.75,1.67-3.22,.8-.5,1.68-.75,2.69-.75,.86,0,1.6,.22,2.21,.64,.6,.42,1.07,1.15,1.39,2.16,.31,.98,.48,2.31,.5,3.96h-.24c-3.47,0-6.21,.29-8.14,.87-2,.59-3.41,1.48-4.2,2.65-.77,1.16-1.17,2.57-1.17,4.2,0,1.03,.19,1.99,.57,2.85,.39,.87,.96,1.62,1.7,2.23,.74,.6,1.65,1.08,2.71,1.41,1.06,.33,2.3,.5,3.69,.5,1.52,0,2.83-.29,3.9-.88,.88-.48,1.56-1.02,2.02-1.61l1.56,2.01h4.82v-13.5c0-1.75-.23-3.31-.68-4.62-.45-1.33-1.14-2.46-2.05-3.35Zm-4.51,10.37v5.46c-.24,.58-.68,1.2-1.31,1.83-.62,.62-1.38,.92-2.32,.92-.82,0-1.45-.28-1.92-.86-.49-.6-.74-1.53-.74-2.76,0-1.57,.44-2.69,1.35-3.44,.92-.76,2.5-1.14,4.69-1.14h.24Z"/><path d="M291.07,101.39h-2.89v3.13h2.89v13.46c0,2.44,.67,4.33,2,5.6,1.32,1.27,3.16,1.92,5.47,1.92,1.53,0,2.86-.22,3.94-.66,1.07-.43,1.96-.96,2.65-1.58l.27-.24-1.09-2.18-.45,.31c-.4,.27-.91,.55-1.52,.83-.58,.26-1.26,.39-2.02,.39-.64,0-1.12-.24-1.46-.73-.26-.37-.57-1.26-.57-3.37v-13.75h5.31v-3.13h-5.31v-7.24h-4.56l-2.67,3.2v4.04Z"/><path d="M331.96,101.39h-7.23v18.21c-.18,.34-.44,.72-.77,1.15-.35,.45-.79,.84-1.32,1.16-.5,.31-1.09,.46-1.77,.46-.76,0-1.42-.18-1.95-.55-.52-.35-.93-.97-1.22-1.83-.3-.91-.46-2.19-.46-3.8v-8.06c0-1.67-.13-2.94-.41-3.9-.29-1.01-.81-1.76-1.54-2.21-.7-.43-1.67-.65-2.88-.65h-6.27v2.4h.96c1.25,0,2.02,.34,2.34,1.05,.37,.82,.56,1.93,.56,3.3v8.01c0,2.12,.34,3.9,1.01,5.28,.69,1.41,1.77,2.46,3.2,3.12,1.39,.64,3.13,.96,5.19,.96,1.49,0,2.78-.29,3.85-.88,.91-.5,1.67-1.06,2.28-1.66l1.6,2.06h4.81v-23.63Z"/><path d="M353.94,106.67l.29,.41,2.77-2.12,.25-.16-.11-.36-.19-.65c-.04-.08-.08-.17-.13-.26-.31-.61-.77-1.14-1.37-1.56-.47-.36-1.03-.63-1.66-.81-.62-.17-1.31-.26-2.06-.26-1.52,0-2.83,.27-3.9,.8-.82,.4-1.51,.82-2.06,1.24-.37-.49-.84-.86-1.39-1.1-.69-.3-1.6-.45-2.77-.45h-5.25v2.4h.96c1.25,0,2,.34,2.31,1.04,.36,.82,.54,1.94,.54,3.31v16.88h7.23v-16.69c0-.27-.01-.59-.05-.96-.03-.31-.07-.69-.12-1.17,.35-.31,.81-.58,1.36-.8,.65-.26,1.47-.4,2.42-.4,.69,0,1.29,.18,1.76,.53,.52,.39,.91,.77,1.17,1.14Z"/><path d="M381.31,120.21l.24-.38-2.24-1.66-.29,.39c-.8,1.08-1.72,2-2.72,2.74-.96,.71-2.23,1.07-3.79,1.07-1.42,0-2.55-.59-3.45-1.81-.87-1.18-1.33-3.2-1.37-6.01h14.48l.22-3.52c0-2.02-.5-3.81-1.48-5.32-.98-1.52-2.32-2.71-4-3.55-1.67-.83-3.56-1.26-5.62-1.26s-3.97,.47-5.64,1.41c-1.68,.94-3.03,2.34-4,4.17-.97,1.81-1.46,4.07-1.46,6.71,0,2.32,.47,4.43,1.4,6.27,.94,1.86,2.3,3.34,4.04,4.41,1.74,1.07,3.81,1.61,6.14,1.61,1.83,0,3.38-.29,4.62-.86,1.22-.57,2.25-1.28,3.04-2.11,.77-.81,1.4-1.59,1.87-2.32Zm-13.62-8.79c.03-1.84,.21-3.3,.55-4.37,.36-1.11,.82-1.91,1.37-2.36,.54-.45,1.1-.66,1.7-.66,1.06,0,1.89,.51,2.56,1.56,.67,1.05,1.02,3.01,1.06,5.82h-7.23Z"/><path class="cls-5" d="M251.82,164.87c-.8,1.99-1.78,3.36-2.93,4.09-1.15,.73-2.58,1.11-4.25,1.11h-7.77v-12.31h12.54v-3.13h-12.54v-11.1h7.29c1.8,0,3.2,.42,4.15,1.23,.93,.8,1.4,2.17,1.4,4.08v.48h2.4v-4.58c0-.7-.12-1.38-.37-2.03-.26-.69-.73-1.26-1.4-1.68-.67-.42-1.59-.63-2.82-.63h-21.75v2.41h.96c1.25,0,2.01,.34,2.34,1.05,.37,.82,.56,1.93,.56,3.3v26.05h18.33c1.45,0,2.52-.36,3.17-1.07,.61-.66,1.1-1.54,1.47-2.62l1.57-4.26-2.19-.81-.17,.43Z"/><path d="M278.06,150.04c-1.41-.64-3.18-.96-5.26-.96s-3.61,.25-4.76,.76c-.88,.39-1.61,.82-2.18,1.26-.37-.49-.83-.85-1.38-1.09-.69-.3-1.6-.45-2.77-.45h-5.25v2.4h.96c1.25,0,2.01,.34,2.31,1.04,.36,.82,.54,1.93,.54,3.3v16.88h7.23v-19.77c.38-.26,.84-.48,1.38-.66,1.25-.41,3.13-.52,4.35,.24,.59,.36,1.07,.97,1.43,1.81,.37,.87,.56,2.07,.56,3.57v14.81h7.23v-14.76c0-2.16-.37-3.94-1.09-5.31-.74-1.4-1.85-2.43-3.29-3.08Z"/><path d="M301.39,163.68l-3.8-8.29c-.8-1.72-1.7-3.06-2.69-3.96-1-.91-2.1-1.54-3.28-1.87-1.14-.32-2.4-.47-3.72-.47-.23,0-.57,.02-1,.05-.4,.03-.66,.05-.78,.05h-.48v1.89l.44,.04c.68,.06,1.26,.39,1.79,1.03,.58,.71,1.29,1.94,2.11,3.66l8.28,17.88h2.35l10.7-24.11h-3.66l-6.26,14.12Z"/><path d="M321.82,150.21c-.7-.43-1.67-.65-2.88-.65h-6.27v2.4h.96c1.25,0,2.02,.34,2.34,1.05,.37,.82,.56,1.93,.56,3.3v16.88h7.23v-16.88c0-1.64-.14-2.95-.4-3.89-.29-1.02-.81-1.76-1.54-2.21Z"/><path d="M322.36,147.07c.61-.58,.92-1.36,.92-2.33,0-1.07-.34-2.03-1-2.86-.69-.85-1.73-1.29-3.1-1.29-.86,0-1.61,.29-2.21,.85-.61,.57-.92,1.36-.92,2.33,0,1.07,.34,2.03,1,2.86,.69,.85,1.73,1.29,3.1,1.29,.86,0,1.61-.29,2.21-.85Z"/><path d="M348.65,151.97l-.13-.27c-.31-.62-.78-1.15-1.37-1.56-.47-.36-1.02-.63-1.66-.81-.62-.17-1.31-.26-2.06-.26-1.51,0-2.83,.27-3.91,.8-.82,.41-1.51,.82-2.06,1.24-.37-.49-.84-.86-1.39-1.1-.69-.3-1.6-.45-2.77-.45h-5.26v2.4h.96c1.25,0,2.01,.34,2.31,1.04,.36,.82,.54,1.93,.54,3.3v16.88h7.23v-16.69c0-.27-.02-.59-.05-.96-.03-.31-.07-.7-.12-1.17,.36-.31,.81-.58,1.36-.8,.65-.26,1.47-.4,2.42-.4,.7,0,1.28,.18,1.76,.53,.52,.39,.91,.77,1.17,1.14l.29,.41,2.78-2.12,.27-.07"/><path d="M370.38,150.72c-1.79-1.09-3.96-1.64-6.45-1.64s-4.62,.55-6.42,1.64c-1.8,1.09-3.21,2.58-4.18,4.43-.97,1.84-1.45,3.94-1.45,6.23s.49,4.34,1.45,6.2c.97,1.87,2.38,3.37,4.18,4.46,1.81,1.09,3.97,1.63,6.42,1.63s4.66-.55,6.45-1.64c1.79-1.09,3.19-2.59,4.16-4.46,.96-1.86,1.45-3.95,1.45-6.2s-.49-4.38-1.45-6.23c-.97-1.86-2.37-3.35-4.16-4.43Zm-10.49,5.81c.35-1.36,.88-2.45,1.58-3.22,.67-.74,1.48-1.1,2.47-1.1s1.8,.36,2.46,1.09c.7,.78,1.23,1.86,1.58,3.23,.36,1.4,.54,3.03,.54,4.85s-.18,3.41-.54,4.83c-.35,1.38-.88,2.47-1.58,3.24-.67,.74-1.48,1.1-2.47,1.1s-1.8-.36-2.47-1.1c-.7-.77-1.23-1.86-1.58-3.24-.36-1.42-.54-3.04-.54-4.83s.18-3.45,.54-4.85Z"/><path d="M400.82,150.04c-1.41-.64-3.18-.96-5.26-.96s-3.61,.25-4.76,.76c-.88,.39-1.61,.82-2.18,1.26-.37-.49-.83-.85-1.38-1.09-.69-.3-1.6-.45-2.77-.45h-5.25v2.4h.96c1.25,0,2,.34,2.31,1.04,.36,.82,.54,1.93,.54,3.3v16.88h7.23v-19.77c.38-.26,.84-.48,1.38-.66,1.25-.41,3.13-.51,4.35,.24,.59,.36,1.07,.97,1.43,1.81,.37,.87,.56,2.07,.56,3.57v14.81h7.23v-14.76c0-2.16-.37-3.95-1.09-5.31-.74-1.39-1.84-2.43-3.29-3.08Z"/><path d="M430.96,150.04c-1.41-.64-3.18-.96-5.26-.96s-3.61,.25-4.75,.76c-.88,.39-1.61,.82-2.18,1.26-.37-.48-.83-.85-1.38-1.09-.69-.3-1.6-.45-2.77-.45h-5.25v2.4h.96c1.25,0,2,.34,2.31,1.04,.36,.82,.54,1.94,.54,3.3v16.88h7.23v-19.77c.38-.26,.84-.48,1.38-.66,1.25-.41,3.13-.51,4.35,.24,.59,.36,1.07,.97,1.43,1.81,.37,.87,.56,2.07,.56,3.57v14.81h7.23v-14.76c0-2.16-.37-3.95-1.09-5.31-.74-1.39-1.84-2.43-3.29-3.08Z"/><path d="M457.93,150.34c-1.67-.83-3.56-1.26-5.62-1.26s-3.97,.47-5.64,1.41c-1.68,.94-3.03,2.35-4,4.17-.97,1.81-1.46,4.07-1.46,6.71,0,2.32,.47,4.43,1.4,6.27,.93,1.85,2.29,3.34,4.04,4.41,1.74,1.07,3.81,1.61,6.14,1.61,1.83,0,3.38-.29,4.61-.87,1.22-.57,2.24-1.28,3.04-2.11,.78-.81,1.4-1.59,1.87-2.32l.24-.38-2.24-1.66-.29,.39c-.8,1.08-1.72,2-2.72,2.75-.96,.71-2.23,1.07-3.79,1.07-1.43,0-2.56-.59-3.45-1.81-.87-1.18-1.33-3.2-1.37-6.01h14.49l.22-3.52c0-2.01-.5-3.81-1.47-5.32-.98-1.52-2.32-2.71-4-3.55Zm-9.24,9.26c.03-1.84,.21-3.3,.55-4.37,.36-1.11,.82-1.91,1.37-2.36,.54-.45,1.1-.66,1.7-.66,1.06,0,1.89,.51,2.56,1.56,.66,1.05,1.02,3.01,1.06,5.82h-7.23Z"/><path d="M500.36,150.05c-1.31-.64-2.93-.96-4.79-.96s-3.48,.3-4.57,.9c-.89,.49-1.66,1.04-2.27,1.63-.25-.23-.57-.49-.96-.78-.63-.46-1.42-.87-2.36-1.22-.95-.36-2.08-.54-3.35-.54-1.52,0-2.83,.28-3.91,.82-.88,.44-1.61,.9-2.18,1.35-.4-.57-.93-.99-1.6-1.25-.76-.29-1.66-.44-2.68-.44h-5.26v2.4h.96c1.25,0,2,.34,2.31,1.04,.36,.82,.54,1.93,.54,3.3v16.88h7.23v-19.46c.34-.28,.76-.56,1.27-.83,1.56-.83,2.99-.51,4,.81,.67,.88,1.01,2.45,1.01,4.68v14.81h7.23v-14.76c0-.98-.07-1.91-.2-2.76-.12-.72-.27-1.31-.48-1.8,.35-.36,.81-.68,1.35-.95,.66-.32,1.4-.48,2.22-.48,.94,0,1.72,.41,2.37,1.26,.67,.88,1.01,2.45,1.01,4.68v14.81h7.23v-14.76c0-2.16-.35-3.94-1.04-5.31-.7-1.39-1.74-2.43-3.09-3.09Z"/><path d="M527.13,150.34c-1.67-.83-3.56-1.26-5.62-1.26s-3.96,.47-5.64,1.41c-1.68,.94-3.03,2.35-4,4.17-.97,1.81-1.46,4.07-1.46,6.72,0,2.32,.47,4.43,1.4,6.27,.94,1.85,2.29,3.34,4.04,4.41,1.74,1.07,3.81,1.61,6.14,1.61,1.83,0,3.38-.29,4.61-.87,1.22-.57,2.25-1.28,3.04-2.11,.77-.81,1.4-1.59,1.87-2.32l.24-.38-2.24-1.66-.29,.39c-.8,1.08-1.72,2-2.72,2.75-.96,.71-2.23,1.07-3.79,1.07-1.43,0-2.55-.59-3.45-1.81-.87-1.18-1.33-3.2-1.37-6.01h14.49l.22-3.52c0-2.01-.5-3.81-1.47-5.32-.98-1.52-2.32-2.71-4-3.55Zm-8.68,4.89c.36-1.11,.82-1.9,1.37-2.36,.54-.45,1.1-.66,1.7-.66,1.06,0,1.89,.51,2.56,1.56,.66,1.05,1.02,3.01,1.06,5.83h-7.23c.03-1.83,.21-3.3,.55-4.37Z"/><path d="M557.25,150.04c-1.41-.64-3.18-.96-5.26-.96s-3.61,.25-4.76,.76c-.88,.39-1.61,.82-2.18,1.26-.37-.49-.83-.85-1.38-1.09-.69-.3-1.6-.45-2.77-.45h-5.25v2.4h.96c1.25,0,2,.34,2.31,1.04,.36,.82,.54,1.93,.54,3.3v16.88h7.23v-19.77c.38-.26,.84-.48,1.38-.66,1.25-.41,3.13-.52,4.35,.24,.59,.36,1.07,.97,1.43,1.81,.37,.87,.56,2.07,.56,3.57v14.81h7.23v-14.76c0-2.16-.37-3.94-1.09-5.31-.74-1.4-1.85-2.43-3.29-3.08Z"/><path d="M582.89,169.01l-.45,.31c-.4,.28-.91,.55-1.52,.83-.58,.26-1.26,.39-2.02,.39-.65,0-1.12-.23-1.46-.73-.26-.37-.57-1.26-.57-3.37v-13.75h5.31v-3.13h-5.31v-7.24h-4.56l-2.67,3.2v4.04h-2.89v3.13h2.89v13.46c0,2.44,.67,4.33,2,5.6,1.32,1.27,3.17,1.92,5.47,1.92,1.53,0,2.86-.22,3.94-.66,1.07-.43,1.96-.97,2.65-1.58l.27-.24-1.09-2.17Z"/></g><path class="cls-8" d="M182.79,69.48c5.55-2.4,13.29-.85,13.29-.85-.02,8.16-10.14,18.21-10.14,18.21,0,0,5.81-6.64,5.36-16.19,0,0-3.71-2.56-8.51-1.18Z"/><path class="cls-4" d="M2.58,128.95s59.91-8.5,75.41-8.71c0,0-.42,6.59-61.18,42.27,0,0,61.18-33.14,68.19-38.03,7.01-4.89,20.39-7.22,20.39-7.22,0,0-11.9-1.06-14.45-.85,0,0,11.68-10.62,14.45-15.08,0,0-12.96,8.28-32.93,12.11-16.1,3.08-69.89,15.51-69.89,15.51"/><path class="cls-3" d="M141.09,62.24s2.97-6.16-2.34-14.66c-1.21-1.94-2.68-3.88-4.22-5.73,4.73,.14,24.26,1.06,32.84,6.64,9.8,6.37,2.39,14.84,2.39,14.84,0,0,10.52-11.63-3.51-18.48-14.02-6.85-43.66-14.66-43.66-14.66l.03,.03c-4-.93-27.6-5.97-76.5-7.6,0,0,36.11,14.34,73.29,47.26,0,0,12.32,11.47-.42,20.18,0,0,10.2,.42,22.09-27.83Z"/><path class="cls-7" d="M155.96,114.08c-3.34,0-6.06-1.21-8.58-2.43,7.26-2.12,20.45-8.64,20.45-8.64-13.64,5.39-24.27,6.09-27.57,6.17-.36-.02-.72-.02-1.08,0-13.17,1.01-15.72,5.31-15.72,5.31,0,0,11.47-7.65,14.45,11.05,2.97,18.69,5.52,41.21,0,73.72,0,0,11.47-5.1,33.99-53.11,.27-21.35-.85-20.76-1.49-23.16-1.7-6.37-7.44-8.92-14.45-8.92Z"/><path class="cls-9" d="M183.05,87.63c-5.81-3.87-6.44-8.82-6.44-8.82,0,0-1.59-4.86,5.02-8.6,4.25-2.41,10.51-2,14.45-1.41,.02,8.09-10.14,18.21-10.14,18.21,11.86-7.56,13.73-15.64,14.02-17.58l6.2-2.8-7.25-.24c-9.32-9.8-22.11-4.06-22.11-4.06,0,0-13.5,6.37-9.68,18.96,2.58,8.48,10.58,9.33,15.38,10.2,5.04,.91,6.95,1.53,9.84,4.89,1.71,2.46,2.52,5.97,1.38,11.02-3.9,17.37-16.06,31.53-16.06,31.53,0,0,15.82-17.98,19.89-35.03,3.9-16.36-7.29-11.73-14.51-16.26Z"/></svg>